<mxfile host="app.diagrams.net" modified="2023-08-20T19:06:42.153Z" agent="Mozilla/5.0 (Windows NT 10.0; Win64; x64) AppleWebKit/537.36 (KHTML, like Gecko) Chrome/115.0.0.0 Safari/537.36 OPR/101.0.0.0" etag="z46aO8wHPRIwT0OVXRER" version="21.6.8" type="device">
  <diagram name="Page-1" id="e7e014a7-5840-1c2e-5031-d8a46d1fe8dd">
    <mxGraphModel dx="1240" dy="702" grid="1" gridSize="10" guides="1" tooltips="1" connect="1" arrows="1" fold="1" page="1" pageScale="1" pageWidth="1169" pageHeight="826" background="none" math="0" shadow="0">
      <root>
        <mxCell id="0" />
        <mxCell id="1" parent="0" />
        <mxCell id="8icTBMnaCwf8voEp2aKM-41" value="Aluno" style="shape=umlActor;verticalLabelPosition=bottom;verticalAlign=top;html=1;outlineConnect=0;" vertex="1" parent="1">
          <mxGeometry x="260" y="120" width="30" height="60" as="geometry" />
        </mxCell>
        <mxCell id="8icTBMnaCwf8voEp2aKM-42" value="&lt;br&gt;Realizar matrícula" style="ellipse;whiteSpace=wrap;html=1;verticalAlign=middle;align=center;horizontal=1;" vertex="1" parent="1">
          <mxGeometry x="370" y="40" width="140" height="70" as="geometry" />
        </mxCell>
        <mxCell id="8icTBMnaCwf8voEp2aKM-45" value="" style="endArrow=none;html=1;rounded=0;entryX=0;entryY=1;entryDx=0;entryDy=0;" edge="1" parent="1" target="8icTBMnaCwf8voEp2aKM-42">
          <mxGeometry width="50" height="50" relative="1" as="geometry">
            <mxPoint x="290" y="150" as="sourcePoint" />
            <mxPoint x="560" y="60" as="targetPoint" />
          </mxGeometry>
        </mxCell>
        <mxCell id="8icTBMnaCwf8voEp2aKM-46" value="&lt;br&gt;Cancelar matrícula" style="ellipse;whiteSpace=wrap;html=1;verticalAlign=middle;" vertex="1" parent="1">
          <mxGeometry x="375" y="140" width="150" height="80" as="geometry" />
        </mxCell>
        <mxCell id="8icTBMnaCwf8voEp2aKM-48" value="" style="endArrow=none;html=1;rounded=0;entryX=0;entryY=0.5;entryDx=0;entryDy=0;" edge="1" parent="1" source="8icTBMnaCwf8voEp2aKM-41" target="8icTBMnaCwf8voEp2aKM-46">
          <mxGeometry width="50" height="50" relative="1" as="geometry">
            <mxPoint x="510" y="300" as="sourcePoint" />
            <mxPoint x="560" y="250" as="targetPoint" />
          </mxGeometry>
        </mxCell>
        <mxCell id="8icTBMnaCwf8voEp2aKM-49" value="Professor" style="shape=umlActor;verticalLabelPosition=bottom;verticalAlign=top;html=1;outlineConnect=0;" vertex="1" parent="1">
          <mxGeometry x="260" y="290" width="30" height="60" as="geometry" />
        </mxCell>
        <mxCell id="8icTBMnaCwf8voEp2aKM-52" value="Visualizar alunos matriculados&lt;br&gt;&lt;div style=&quot;&quot;&gt;&lt;div style=&quot;&quot;&gt;&lt;br&gt;&lt;/div&gt;&lt;/div&gt;" style="ellipse;whiteSpace=wrap;html=1;verticalAlign=middle;align=center;" vertex="1" parent="1">
          <mxGeometry x="380" y="260" width="120" height="80" as="geometry" />
        </mxCell>
        <mxCell id="8icTBMnaCwf8voEp2aKM-55" value="" style="endArrow=none;html=1;rounded=0;entryX=0;entryY=0.5;entryDx=0;entryDy=0;" edge="1" parent="1" source="8icTBMnaCwf8voEp2aKM-49" target="8icTBMnaCwf8voEp2aKM-52">
          <mxGeometry width="50" height="50" relative="1" as="geometry">
            <mxPoint x="510" y="300" as="sourcePoint" />
            <mxPoint x="560" y="250" as="targetPoint" />
          </mxGeometry>
        </mxCell>
        <mxCell id="8icTBMnaCwf8voEp2aKM-59" value="Funcionario&lt;br&gt;da&lt;br&gt;Secretária" style="shape=umlActor;verticalLabelPosition=bottom;verticalAlign=top;html=1;outlineConnect=0;" vertex="1" parent="1">
          <mxGeometry x="260" y="540" width="30" height="60" as="geometry" />
        </mxCell>
        <mxCell id="8icTBMnaCwf8voEp2aKM-61" value="Gerenciar alunos&lt;br&gt;" style="ellipse;whiteSpace=wrap;html=1;" vertex="1" parent="1">
          <mxGeometry x="415" y="400" width="120" height="80" as="geometry" />
        </mxCell>
        <mxCell id="8icTBMnaCwf8voEp2aKM-62" value="Gerenciar professores" style="ellipse;whiteSpace=wrap;html=1;" vertex="1" parent="1">
          <mxGeometry x="400" y="500" width="120" height="80" as="geometry" />
        </mxCell>
        <mxCell id="8icTBMnaCwf8voEp2aKM-64" value="Gerenciar disciplinas" style="ellipse;whiteSpace=wrap;html=1;" vertex="1" parent="1">
          <mxGeometry x="400" y="600" width="120" height="80" as="geometry" />
        </mxCell>
        <mxCell id="8icTBMnaCwf8voEp2aKM-68" value="" style="endArrow=none;html=1;rounded=0;entryX=0.05;entryY=0.688;entryDx=0;entryDy=0;entryPerimeter=0;" edge="1" parent="1" target="8icTBMnaCwf8voEp2aKM-61">
          <mxGeometry width="50" height="50" relative="1" as="geometry">
            <mxPoint x="290" y="570" as="sourcePoint" />
            <mxPoint x="560" y="420" as="targetPoint" />
          </mxGeometry>
        </mxCell>
        <mxCell id="8icTBMnaCwf8voEp2aKM-69" value="" style="endArrow=none;html=1;rounded=0;entryX=-0.008;entryY=0.613;entryDx=0;entryDy=0;entryPerimeter=0;" edge="1" parent="1" target="8icTBMnaCwf8voEp2aKM-62">
          <mxGeometry width="50" height="50" relative="1" as="geometry">
            <mxPoint x="290" y="570" as="sourcePoint" />
            <mxPoint x="560" y="420" as="targetPoint" />
          </mxGeometry>
        </mxCell>
        <mxCell id="8icTBMnaCwf8voEp2aKM-70" value="" style="endArrow=none;html=1;rounded=0;" edge="1" parent="1" target="8icTBMnaCwf8voEp2aKM-64">
          <mxGeometry width="50" height="50" relative="1" as="geometry">
            <mxPoint x="290" y="570" as="sourcePoint" />
            <mxPoint x="560" y="420" as="targetPoint" />
          </mxGeometry>
        </mxCell>
        <mxCell id="8icTBMnaCwf8voEp2aKM-72" value="" style="rounded=0;whiteSpace=wrap;html=1;fillColor=none;" vertex="1" parent="1">
          <mxGeometry x="340" y="20" width="300" height="690" as="geometry" />
        </mxCell>
      </root>
    </mxGraphModel>
  </diagram>
</mxfile>
